<?xml version="1.0" encoding="UTF-8"?>
<svg width="128" height="128" viewBox="0 0 128 128" fill="none" xmlns="http://www.w3.org/2000/svg">
  <rect width="128" height="128" rx="64" fill="#6D28D9" fill-opacity="0.1"/>
  <path d="M64 38C48.536 38 36 50.536 36 66C36 81.464 48.536 94 64 94C79.464 94 92 81.464 92 66C92 50.536 79.464 38 64 38ZM64 42C77.256 42 88 52.744 88 66C88 79.256 77.256 90 64 90C50.744 90 40 79.256 40 66C40 52.744 50.744 42 64 42Z" fill="#6D28D9" fill-opacity="0.3"/>
  <path d="M64 48C54.059 48 46 56.059 46 66C46 75.941 54.059 84 64 84C73.941 84 82 75.941 82 66C82 56.059 73.941 48 64 48ZM64 52C71.732 52 78 58.268 78 66C78 73.732 71.732 80 64 80C56.268 80 50 73.732 50 66C50 58.268 56.268 52 64 52Z" fill="#6D28D9" fill-opacity="0.5"/>
  <circle cx="64" cy="66" r="10" fill="#6D28D9"/>
</svg> 